<?xml version="1.0" standalone="no"?>
<!DOCTYPE svg PUBLIC "-//W3C//DTD SVG 1.1//EN" "http://www.w3.org/Graphics/SVG/1.1/DTD/svg11.dtd" >
<svg xmlns="http://www.w3.org/2000/svg">
<metadata></metadata>
<defs>
<font id="inaimathiregular" horiz-adv-x="925" >
<font-face units-per-em="2048" ascent="1638" descent="-410" />
<missing-glyph horiz-adv-x="614" />
<glyph horiz-adv-x="2048" />
<glyph horiz-adv-x="2048" />
<glyph unicode="&#xd;" horiz-adv-x="614" />
<glyph unicode=" "  horiz-adv-x="614" />
<glyph unicode="&#x09;" horiz-adv-x="614" />
<glyph unicode="&#xa0;" horiz-adv-x="614" />
<glyph unicode="!" horiz-adv-x="507" d="M164 0v201h178v-201h-178zM164 774v553h178v-549l-35 -444h-108z" />
<glyph unicode="&#x22;" horiz-adv-x="657" d="M129 829v498h125v-498h-125zM401 829v498h127v-498h-127z" />
<glyph unicode="#" horiz-adv-x="1214" d="M66 389l22 117h244l41 217h-244l21 115h243l66 368h129l-66 -368h219l66 368h131l-68 -368h283l-18 -115h-281l-43 -217h283l-21 -117h-282l-72 -389h-131l71 389h-219l-67 -389h-131l67 389h-243zM461 506h221l41 217h-219z" />
<glyph unicode="$" d="M53 381l148 -4q17 -130 72 -194q57 -66 135 -66v407q-64 20 -140 53q-62 27 -103 67q-43 42 -65 95q-22 54 -22 135q0 64 25 115q26 53 70 94q43 40 105 65q58 23 130 23v97h79v-97q66 0 123 -20q64 -22 107 -60q49 -43 79 -100q32 -61 42 -135h-148q-7 38 -23 68 q-18 33 -43 58q-26 26 -60 41q-35 15 -77 15v-385q83 -24 150 -54q66 -29 117 -71q47 -39 75 -99q27 -59 27 -138q0 -91 -34 -150t-87 -94q-51 -34 -119 -49q-62 -14 -129 -14v-99h-79v99q-69 0 -128 28q-62 29 -109 81q-49 53 -80 125q-32 73 -38 163zM229 877 q0 -68 44 -121q45 -54 135 -84v366q-86 0 -132 -46q-47 -47 -47 -115zM487 117q93 0 155 49q63 50 63 123q0 72 -48 120q-45 45 -170 91v-383z" />
<glyph unicode="%" horiz-adv-x="1400" d="M66 885q0 62 22 113q23 53 60 92q36 37 91 61q54 23 111 23q56 0 110 -23q53 -23 91 -61t61 -92t23 -113q0 -60 -23 -114q-22 -52 -61 -92q-39 -41 -91 -63q-51 -22 -110 -22q-60 0 -111 22q-54 23 -91 63q-38 41 -60 92t-22 114zM190 885q0 -72 48 -126q46 -52 112 -52 q35 0 62 14q31 16 50 38q23 26 35 56q13 32 13 70q0 73 -47 125q-47 51 -113 51t-112 -51q-48 -53 -48 -125zM285 0l710 1157h113l-713 -1157h-110zM770 272q0 61 23 115q23 53 60 92q38 39 89 62q50 22 111 22q58 0 109 -22q52 -22 90 -62q39 -40 61 -92q22 -51 22 -115 q0 -61 -22 -112q-22 -52 -61 -92q-38 -40 -90 -62q-51 -22 -109 -22q-61 0 -111 22q-51 23 -89 62q-37 39 -60 92q-23 54 -23 112zM893 272q0 -73 47 -125q47 -51 113 -51q31 0 61 14q29 14 51 37q21 23 36 57q13 30 13 68q0 76 -48 127q-49 52 -113 52q-66 0 -113 -52 t-47 -127z" />
<glyph unicode="&#x26;" horiz-adv-x="1112" d="M74 301q0 62 24 116q22 49 66 100q40 46 97 85q63 43 122 70l-78 94q-35 52 -56 98q-22 48 -26 103q0 56 23 107q22 50 60 87q38 38 89 59t111 21q80 0 135 -21t90 -59t50 -87q16 -53 16 -107q0 -45 -12 -83q-13 -42 -36 -75q-22 -32 -70 -77q-40 -37 -110 -85l246 -291 q20 41 34 107q13 61 13 125h142q-5 -59 -14 -116q-8 -55 -19 -91q-13 -43 -30 -76q-20 -38 -44 -69l211 -236h-199l-94 123q-32 -32 -61 -57q-37 -32 -74 -51q-39 -20 -96 -34q-58 -14 -129 -14q-98 0 -170 30t-119 77q-48 48 -70 107t-22 120zM236 315q0 -47 18 -86 q17 -36 49 -67q29 -27 69 -45q39 -17 79 -17q47 0 94 9q39 7 69 24q33 18 58 43q29 29 57 64l-276 348q-27 -17 -76 -55q-43 -33 -70 -64q-29 -34 -51 -74q-20 -37 -20 -80zM360 985q0 -39 17 -84q16 -42 63 -92l66 -70q59 42 88 78q29 37 45 68q14 29 16 56q2 34 2 44 q0 28 -5 56q-5 26 -21 44q-17 19 -46 29t-79 10q-54 0 -100 -38t-46 -101z" />
<glyph unicode="'" horiz-adv-x="346" d="M111 829v498h127v-498h-127z" />
<glyph unicode="(" horiz-adv-x="542" d="M117 643q0 110 16 225q18 126 50 236q34 114 84 224q49 106 118 194h96q-53 -95 -93 -205q-38 -104 -65 -225q-25 -112 -39 -230t-14 -219t14 -219q14 -115 39 -230q28 -125 65 -226q40 -110 93 -201h-96q-70 88 -118 190q-49 107 -84 222q-33 109 -50 236 q-16 116 -16 228z" />
<glyph unicode=")" horiz-adv-x="542" d="M63 -233q56 98 93 201q35 99 65 226q27 115 39 230q12 114 12 219t-12 219q-12 118 -39 230q-29 123 -65 225t-93 205h95q66 -83 118 -194q50 -107 85 -224q34 -117 51 -236q16 -115 16 -225q0 -115 -17 -228q-19 -124 -52 -236q-35 -115 -84 -222q-49 -105 -117 -190 h-95z" />
<glyph unicode="*" horiz-adv-x="782" d="M57 952l47 142l236 -109l-27 256h152l-27 -256l234 109l51 -146l-262 -55l186 -186l-121 -91l-137 222l-139 -222l-119 91l186 186z" />
<glyph unicode="+" horiz-adv-x="991" d="M66 590v115h383v366h112v-366h381v-115h-381v-367h-112v367h-383z" />
<glyph unicode="," horiz-adv-x="507" d="M160 0v201h178v-238q0 -93 -47 -157q-46 -62 -131 -80v88q52 18 70 54t18 95v37h-88z" />
<glyph unicode="-" horiz-adv-x="604" d="M82 444v142h438v-142h-438z" />
<glyph unicode="." horiz-adv-x="507" d="M160 0v201h178v-201h-178z" />
<glyph unicode="/" horiz-adv-x="454" d="M-27 -33l404 1274h96l-399 -1274h-101z" />
<glyph unicode="0" d="M57 588q0 270 102 428t302 158q403 0 403 -586q0 -300 -101 -452t-302 -152t-302 152q-102 153 -102 452zM223 588q0 -243 57 -357t181 -114t181 114q56 112 56 357q0 241 -56 346q-57 106 -181 106t-181 -106t-57 -346z" />
<glyph unicode="1" d="M186 838v114h84q43 0 85 17q41 17 69 45t46 69q17 38 17 91h117v-1174h-149v838h-269z" />
<glyph unicode="2" d="M76 799q18 166 124 271q106 104 287 104q91 0 160 -30q71 -31 117 -80q48 -51 72 -114t24 -131q0 -59 -15 -106q-14 -44 -43 -84q-26 -36 -65 -69q-41 -34 -80 -60q-100 -72 -164 -111q-80 -49 -163 -121q-28 -24 -47 -52t-31 -69h575v-147h-739v111q0 69 47 136 q45 64 118 129q68 61 156 121l160 113q54 39 91 88q34 46 34 121q0 105 -57 163t-150 58q-113 0 -178 -64t-65 -177h-168z" />
<glyph unicode="3" d="M41 369h166q24 -139 84 -196q59 -56 164 -56q49 0 90 14q43 15 76 42q31 26 52 67q19 38 19 86q0 93 -63 159t-174 66h-95v133h95q51 0 87 15q34 14 58 40q22 24 32 56q9 30 9 61q0 86 -52 135t-138 49q-53 0 -91 -18q-35 -17 -61 -49q-23 -29 -39 -72q-13 -36 -20 -86 h-164q21 168 106 262t273 94q163 0 257 -82q95 -83 95 -221q0 -98 -40 -156t-126 -91q40 -12 80 -35t70 -59q32 -39 49 -85q18 -49 18 -116q0 -85 -33 -148t-88 -106t-128 -66q-70 -22 -154 -22q-169 0 -278 97t-136 288z" />
<glyph unicode="4" d="M57 283v168l502 706h150v-743h165v-131h-165v-283h-150v283h-502zM193 414h366v522z" />
<glyph unicode="5" d="M41 313h166q23 -92 85 -144t146 -52q61 0 105 20q46 21 81 56q34 34 52 83q18 50 18 105q0 59 -22 104t-61 81q-37 34 -87 54q-48 19 -100 19q-56 0 -111 -25q-53 -24 -90 -79h-145l78 622h635v-133h-519l-34 -322l6 -2q46 40 105 56q58 16 120 16q82 0 156 -31 q69 -29 124 -84q49 -49 81 -126q30 -72 30 -154q0 -79 -26 -147q-27 -71 -79 -126t-132 -88q-77 -32 -187 -32q-150 0 -258 84q-109 85 -137 245z" />
<glyph unicode="6" d="M63 516q0 178 30 304q30 127 85 204q56 78 133 114q78 36 174 36q75 0 141 -26q63 -25 110 -69q48 -45 74 -98q28 -57 32 -113h-150q0 33 -16 62q-18 33 -43 55q-29 25 -65 40q-38 15 -81 15q-76 0 -122 -34q-48 -36 -75 -92q-27 -57 -39 -126q-11 -66 -13 -137h6 q108 103 231 103q79 0 151 -29q71 -28 122 -80q49 -49 80 -123q30 -72 30 -155q0 -79 -27 -148q-28 -73 -75 -122q-50 -53 -120 -83t-159 -30q-98 0 -171 36q-79 39 -130 106q-54 71 -83 167q-30 99 -30 223zM244 362q0 -110 63 -178q63 -67 168 -67q112 0 164 70 q53 71 53 175q0 53 -13 98t-41 82q-27 36 -68 57q-42 22 -93 22q-63 0 -110 -25q-46 -25 -73 -62t-39 -83q-11 -41 -11 -89z" />
<glyph unicode="7" d="M59 1024v133h805v-133q-95 -114 -179 -249q-82 -132 -141 -262q-64 -140 -99 -263q-38 -133 -50 -250h-164q39 294 159 544q118 247 319 478v2h-650z" />
<glyph unicode="8" d="M59 324q0 42 11 91q11 51 33 87q25 42 61 71q41 32 90 48q-77 33 -121 98q-45 66 -45 166q0 56 25 111q24 52 72 91q49 40 117 62q67 22 157 22q87 0 154 -22t118 -62q50 -39 75 -91q25 -51 25 -111q0 -101 -46 -165q-47 -65 -119 -99q49 -16 88 -47q36 -29 60 -69 t34 -86q10 -44 10 -91q0 -65 -28 -130q-27 -64 -79 -111q-53 -49 -126 -77q-72 -28 -166 -28t-166 28q-71 28 -126 76q-53 47 -80 109q-28 64 -28 129zM225 326q0 -39 19 -79q18 -38 50 -67q30 -28 75 -46q41 -17 92 -17q61 0 102 17q45 19 72 47q28 29 43 67q14 35 14 78 q0 42 -15 82t-45 72q-30 31 -74 51q-45 20 -99 20q-57 0 -102 -20q-43 -19 -72 -51t-44 -72q-16 -43 -16 -82zM254 868q0 -72 52 -128t155 -56q49 0 88 15q37 14 64 41q25 25 39 59t14 69q0 32 -13 64q-12 30 -37 55q-24 24 -63 39q-36 14 -92 14q-105 0 -156 -53t-51 -119z " />
<glyph unicode="9" d="M49 758q0 82 26 160q25 74 75 132q48 55 122 90q72 34 170 34q200 0 311 -140t111 -399q0 -117 -17 -226q-18 -114 -65 -210q-47 -95 -129 -155q-83 -60 -211 -60q-71 0 -133 17q-68 18 -116 54q-54 40 -87 97q-34 59 -40 143h149q24 -93 91 -136q66 -42 136 -42 q74 0 124 33q52 35 81 88q31 57 44 126q14 73 14 146q-55 -74 -127 -102q-69 -27 -136 -27t-139 28q-68 27 -126 77q-55 47 -92 119q-36 69 -36 153zM215 778q0 -55 18 -103q16 -44 50 -84q28 -34 71 -56q40 -21 88 -21q50 0 94 21q45 22 75 56q33 38 52 84q19 47 19 103 q0 58 -19 103t-52 83q-30 34 -75 56q-41 20 -94 20q-49 0 -88 -20q-43 -22 -71 -56q-33 -40 -50 -83q-18 -47 -18 -103z" />
<glyph unicode=":" horiz-adv-x="507" d="M141 0v201h178v-201h-178zM141 756v198h178v-198h-178z" />
<glyph unicode=";" horiz-adv-x="507" d="M141 0v201h178v-238q0 -93 -47 -157q-46 -62 -131 -80v88q55 18 72 54q16 35 16 95v37h-88zM141 756v198h178v-198h-178z" />
<glyph unicode="&#x3c;" horiz-adv-x="991" d="M90 432v100l811 353v-131l-668 -269v-4l668 -270v-129z" />
<glyph unicode="=" horiz-adv-x="991" d="M59 418v112h877v-112h-877zM59 737v115h877v-115h-877z" />
<glyph unicode="&#x3e;" horiz-adv-x="991" d="M100 82v129l666 270v4l-666 269v131l809 -353v-100z" />
<glyph unicode="?" horiz-adv-x="921" d="M90 838q0 86 26 162q26 77 73 128q48 53 115 83q66 30 147 30q93 0 161 -30q69 -31 111 -77t62 -108t20 -117q0 -63 -22 -113q-21 -48 -54 -87t-71 -74q-35 -32 -70 -72q-33 -38 -54 -82q-22 -47 -22 -104v-39h-143v96q0 76 42 133t92 110q56 59 93 108q43 56 43 128 q0 94 -46 144q-46 51 -142 51q-99 0 -156 -76t-57 -194h-148zM358 0v182h164v-182h-164z" />
<glyph unicode="@" horiz-adv-x="1681" d="M231 571q0 161 53 288t142 210q91 85 210 128q121 44 257 44q112 0 211 -37q102 -38 177 -104q77 -68 122 -163t45 -214q0 -123 -34 -213q-36 -94 -89 -155q-55 -62 -129 -94q-75 -32 -156 -32q-46 0 -69 23t-39 82q-51 -56 -92 -80q-42 -25 -107 -25q-59 0 -106 24 q-49 25 -79 61t-49 86q-18 48 -18 98q0 78 29 162q29 83 80 151q51 67 123 111q71 43 157 43q42 0 77 -18t58 -40q21 -19 36 -45q14 -24 20 -31l37 105h112l-143 -500q-28 -98 29 -98q20 0 60 12q39 12 80 51q40 38 70 111q29 70 29 193q0 97 -36 177q-35 77 -96 135 q-60 57 -141 87q-84 31 -171 31q-117 0 -219 -41q-100 -40 -173 -115q-74 -76 -114 -176q-41 -103 -41 -225q0 -120 46 -212q48 -95 122 -158q76 -64 171 -99q96 -35 191 -35q284 0 412 192h113q-30 -80 -89 -137q-59 -58 -134 -93t-163 -52q-90 -17 -175 -17 q-117 0 -226 44q-105 42 -193 124q-83 78 -136 192q-52 113 -52 244zM621 512q0 -65 34 -111q35 -47 105 -47q71 0 126 38q54 38 83 130l35 105q14 46 9 88q-4 37 -25 66t-49 43q-32 16 -67 16q-50 0 -96 -31q-45 -30 -80 -79q-34 -47 -55 -106q-20 -56 -20 -112z" />
<glyph unicode="A" horiz-adv-x="1112" d="M20 0l437 1356h196l439 -1356h-181l-125 428h-460l-125 -428h-181zM369 573h374l-186 637h-2z" />
<glyph unicode="B" horiz-adv-x="1097" d="M123 0v1356h498q61 0 122 -29q60 -29 105 -75q46 -47 72 -104q26 -56 26 -118q0 -50 -9 -96q-9 -47 -30 -89q-23 -45 -50 -74q-30 -32 -71 -50q60 -16 99 -49q41 -35 68 -81q28 -48 41 -101q14 -56 14 -107q0 -62 -28 -134q-25 -65 -75 -124q-47 -56 -109 -90 q-64 -35 -132 -35h-541zM285 145h319q42 0 86 21t77 54q34 34 55 78q22 46 22 91q0 41 -17 89q-15 44 -47 83q-29 36 -74 61q-42 23 -100 23h-321v-500zM285 782h303q37 0 76 22q37 20 64 54q28 35 44 73q16 39 16 77q0 30 -12 66q-12 35 -38 66q-24 28 -63 50 q-36 20 -87 20h-303v-428z" />
<glyph unicode="C" horiz-adv-x="1185" d="M66 694q0 123 36 240q37 118 107 218q69 97 170 159q100 61 229 61q108 0 201 -31q88 -29 156 -85q63 -51 105 -128q39 -71 50 -159h-162q-33 128 -121 191q-89 63 -229 63q-83 0 -151 -47q-69 -47 -115 -122q-47 -76 -74 -170q-26 -91 -26 -190q0 -128 30 -233 q29 -103 82 -177q51 -73 118 -112q66 -39 136 -39q76 0 137 27q63 28 107 70q44 43 72 103q26 57 34 120h162q-12 -100 -51 -185q-40 -87 -103 -149q-66 -64 -155 -100q-87 -35 -203 -35q-124 0 -225 53q-99 52 -171 148t-109 226q-37 129 -37 283z" />
<glyph unicode="D" horiz-adv-x="1204" d="M123 0v1356h491q121 0 214 -60q94 -60 156 -154q61 -92 95 -216q33 -122 33 -246q0 -127 -33 -250q-34 -125 -94 -218q-63 -97 -151 -154q-89 -58 -207 -58h-504zM285 145h295q88 0 156 43q69 44 116 116q47 73 71 169q23 92 23 205q0 123 -23 216q-24 99 -70 168 q-46 70 -115 109t-156 39h-297v-1065z" />
<glyph unicode="E" horiz-adv-x="1058" d="M123 0v1356h819v-146h-657v-438h618v-145h-618v-482h686v-145h-848z" />
<glyph unicode="F" horiz-adv-x="974" d="M123 0v1356h803v-146h-639v-438h555v-145h-555v-627h-164z" />
<glyph unicode="G" horiz-adv-x="1280" d="M66 670q0 164 45 297q45 134 119 227t176 145t210 52q112 0 201 -33q90 -34 152 -88q63 -56 104 -128q41 -73 62 -155h-152q-37 116 -123 185t-244 69q-98 0 -169 -50q-69 -48 -116 -132q-48 -85 -68 -183q-21 -102 -21 -206q0 -125 26 -223q27 -102 76 -175 q50 -74 118 -114q70 -41 152 -41q68 0 135 44q65 43 118 111t84 150q32 84 32 158h-367v145h519v-725h-107l-45 160q-23 -42 -56 -74q-35 -33 -84 -61q-48 -27 -107 -42q-62 -16 -120 -16q-127 0 -229 60q-104 61 -174 156q-73 99 -110 225t-37 262z" />
<glyph unicode="H" horiz-adv-x="1177" d="M123 0v1356h164v-565h604v565h164v-1356h-164v645h-604v-645h-164z" />
<glyph unicode="I" horiz-adv-x="428" d="M133 0v1356h162v-1356h-162z" />
<glyph unicode="J" horiz-adv-x="821" d="M20 254v145h162v-118q0 -40 16 -72q14 -28 40 -51q22 -20 55 -31q29 -10 63 -10q30 0 61 9q32 9 59 30q28 21 45 52q18 31 18 77v1071h161v-1090q0 -67 -28 -120q-27 -51 -76 -94q-44 -39 -110 -62q-64 -23 -130 -23q-63 0 -126 19q-62 19 -107 55q-49 40 -75 90 q-28 54 -28 123z" />
<glyph unicode="K" horiz-adv-x="1103" d="M123 0v1356h162v-649h4l567 649h217l-485 -555l499 -801h-204l-410 684l-188 -217v-467h-162z" />
<glyph unicode="L" horiz-adv-x="911" d="M123 0v1356h162v-1211h587v-145h-749z" />
<glyph unicode="M" horiz-adv-x="1361" d="M123 0v1356h250l307 -1133h4l326 1133h229v-1356h-162v1100h-6l-317 -1100h-144l-321 1100h-4v-1100h-162z" />
<glyph unicode="N" horiz-adv-x="1175" d="M123 0v1356h199l563 -1086h6v1086h162v-1356h-197l-565 1090h-6v-1090h-162z" />
<glyph unicode="O" horiz-adv-x="1253" d="M66 684q0 144 39 267q41 128 113 226q70 95 176 155q104 59 233 59q128 0 232 -59q106 -60 176 -155q72 -98 113 -226q40 -126 40 -267t-40 -268q-40 -129 -113 -230q-70 -98 -177 -159q-105 -60 -233 -60q-129 0 -233 60q-106 62 -176 159q-73 103 -112 230 q-38 126 -38 268zM242 684q0 -126 25 -229q25 -105 75 -180q49 -74 121 -116t164 -42t164 42q71 41 120 116t75 180q26 107 26 229q0 123 -26 227q-26 103 -75 176q-50 75 -120 114q-71 40 -164 40q-91 0 -162 -40t-121 -114q-48 -72 -76 -176q-26 -98 -26 -227z" />
<glyph unicode="P" horiz-adv-x="1038" d="M123 0v1356h491q82 0 147 -37q67 -38 112 -93q47 -57 72 -124q26 -69 26 -131q0 -66 -26 -136q-25 -67 -72 -125q-47 -57 -112 -93q-64 -35 -147 -35h-329v-582h-162zM285 727h313q36 0 72 22q34 20 63 56q27 32 46 79q18 44 18 87q0 41 -17 86q-16 43 -43 77 q-27 35 -63 55q-38 21 -76 21h-313v-483z" />
<glyph unicode="Q" horiz-adv-x="1273" d="M66 684q0 144 39 267q41 128 113 226q70 95 176 155q104 59 233 59q128 0 232 -59q106 -60 176 -155q72 -98 113 -226q40 -126 40 -267q0 -146 -44 -281q-43 -130 -124 -235l182 -180l-102 -105l-182 183q-127 -99 -293 -99q-129 0 -233 60q-106 62 -176 159 q-73 103 -112 230q-38 126 -38 268zM242 684q0 -126 25 -229q25 -105 75 -180q49 -74 121 -116t164 -42q101 0 184 53l-115 117l105 102l110 -113q101 154 101 408q0 123 -26 227q-26 103 -75 176q-50 75 -120 114q-71 40 -164 40q-91 0 -162 -40t-121 -114 q-48 -72 -76 -176q-26 -98 -26 -227z" />
<glyph unicode="R" horiz-adv-x="1118" d="M123 0v1356h575q69 0 127 -35t98 -87q39 -51 62 -115t23 -120q0 -55 -15 -112q-16 -59 -39 -106q-23 -46 -59 -82q-34 -34 -76 -42q98 -22 131 -91t33 -154v-256q0 -57 16 -95q16 -37 41 -61h-184q-10 10 -19 31q-7 17 -12 40q-3 13 -5 43q-1 14 -1 38v262q0 31 -10 60 q-10 27 -32 53q-21 24 -54 39q-35 16 -80 16h-358v-582h-162zM285 729h354q40 0 77 23q35 22 61 57t41 80q16 48 16 88t-17 83q-16 40 -44 76q-24 31 -62 54q-33 20 -72 20h-354v-481z" />
<glyph unicode="S" horiz-adv-x="1085" d="M82 438h164q0 -64 20 -121q20 -58 60 -104q41 -47 93 -73q54 -27 120 -27q58 0 106 14q54 16 89 44q40 32 61 73q22 43 22 102q0 65 -32 114q-31 48 -79 82q-43 31 -106 54q-57 21 -108 33q-76 18 -140 50q-68 35 -120 84q-51 48 -85 119q-32 67 -32 152q0 75 35 142 q33 63 92 113q57 48 131 75q73 27 151 27q124 0 206 -44q81 -43 128 -109q48 -67 67 -138q19 -72 19 -133h-162q0 59 -21 110q-20 48 -58 88t-81 59q-46 21 -98 21q-50 0 -91 -14q-45 -16 -79 -42q-34 -27 -56 -67q-22 -41 -22 -86q0 -59 28 -106q27 -44 71 -78 q43 -33 95 -52q57 -21 99 -32q79 -18 154 -53t131 -87q56 -51 91 -122q34 -68 34 -158q0 -92 -33 -163t-92 -118q-62 -49 -140 -74q-83 -26 -175 -26q-90 0 -171 37q-86 39 -147 100q-63 63 -101 150t-38 184z" />
<glyph unicode="T" horiz-adv-x="974" d="M20 1210v146h934v-146h-385v-1210h-163v1210h-386z" />
<glyph unicode="U" horiz-adv-x="1142" d="M117 401v955h162v-979q0 -66 25 -115t66 -82t91 -48q51 -15 100 -15q58 0 110 16q54 17 97 49t70 81q26 46 26 114v979h162v-955q0 -105 -41 -187q-40 -79 -107 -136q-66 -56 -150 -83q-86 -28 -167 -28q-76 0 -158 28q-79 27 -143 83q-63 55 -103 136q-40 80 -40 187z " />
<glyph unicode="V" horiz-adv-x="1044" d="M16 1356h181l325 -1084h2l324 1084h180l-414 -1356h-182z" />
<glyph unicode="W" horiz-adv-x="1501" d="M16 1356h183l223 -1084l244 1084h170l241 -1084l223 1084h183l-301 -1356h-178l-254 1077l-256 -1077h-175z" />
<glyph unicode="X" horiz-adv-x="1019" d="M16 0l406 690l-373 666h182l277 -537l278 537h183l-373 -666l408 -690h-203l-293 561l-291 -561h-201z" />
<glyph unicode="Y" horiz-adv-x="1052" d="M0 1356h190l326 -641h4l326 641h190l-438 -795v-561h-162v561z" />
<glyph unicode="Z" horiz-adv-x="1017" d="M41 0v150l741 1058v2h-692v146h866v-166l-727 -1040v-5h727v-145h-915z" />
<glyph unicode="[" horiz-adv-x="448" d="M100 -233v1706h314v-117h-166v-1475h166v-114h-314z" />
<glyph unicode="\" horiz-adv-x="528" d="M10 1393h99l403 -1426h-100z" />
<glyph unicode="]" horiz-adv-x="448" d="M37 -119h166v1475h-166v117h315v-1706h-315v114z" />
<glyph unicode="^" horiz-adv-x="997" d="M8 756l402 450h178l401 -450h-149l-340 338l-344 -338h-148z" />
<glyph unicode="_" horiz-adv-x="835" d="M0 -236h836v-116h-836v116z" />
<glyph unicode="`" horiz-adv-x="329" d="M-74 1192l84 96l377 -323l-82 -97z" />
<glyph unicode="a" horiz-adv-x="1007" d="M63 262q0 94 49 155q47 59 120 100q69 39 157 64l157 43q78 21 121 40q48 21 48 53q0 39 -15 76t-43 64q-29 28 -72 44q-45 17 -106 17q-42 0 -87 -16q-43 -15 -74 -42q-33 -28 -51 -63q-19 -37 -19 -80h-146q0 74 34 133t88 101q55 43 121 64t134 21q75 0 141 -20 q67 -20 121 -62t86 -100q33 -60 33 -137v-524q0 -24 19 -49q17 -23 43 -23q14 0 26 6l29 14v-139q-45 -13 -51 -14q-24 -6 -66 -6q-131 0 -131 165q-67 -83 -169 -125q-98 -40 -198 -40q-60 0 -112 21q-53 21 -95 60t-67 90q-25 52 -25 109zM215 266q0 -78 57 -121 q56 -43 136 -43q38 0 88 13q43 11 90 37q42 23 77 61q34 37 52 86v256q-61 -26 -141 -46q-83 -20 -164 -51q-82 -31 -138 -75q-57 -45 -57 -117z" />
<glyph unicode="b" horiz-adv-x="1007" d="M111 0v1395h141v-514q38 68 114 114q71 43 162 43q107 0 185 -45q77 -44 130 -119q53 -74 78 -169q25 -94 25 -199q0 -104 -25 -197q-26 -95 -78 -167q-53 -73 -130 -116q-79 -44 -185 -44q-89 0 -162 41q-74 42 -114 104v-127h-141zM256 506q0 -83 18 -155 q17 -69 54 -128q34 -54 85 -87q50 -32 115 -32q66 0 116 32q51 33 85 87q35 57 53 128q19 76 19 155q0 78 -19 156q-17 71 -53 130q-32 53 -85 90q-47 33 -116 33q-68 0 -115 -33q-53 -37 -85 -90q-37 -62 -54 -130q-18 -74 -18 -156z" />
<glyph unicode="c" horiz-adv-x="966" d="M74 506q0 105 25 199q25 95 78 169q53 75 130 119q78 45 185 45q83 0 148 -28q69 -30 117 -78q51 -51 83 -114t49 -138h-148q-29 103 -92 169t-157 66q-69 0 -116 -33q-53 -37 -85 -90q-36 -59 -53 -130q-19 -78 -19 -156q0 -79 19 -155q18 -71 53 -128q34 -54 85 -87 q50 -32 116 -32q97 0 162 70q63 68 91 178h150q-17 -79 -49 -145q-33 -68 -83 -118t-118 -79q-66 -28 -153 -28q-106 0 -185 44q-77 43 -130 116q-52 72 -78 167q-25 93 -25 197z" />
<glyph unicode="d" horiz-adv-x="1026" d="M90 506q0 101 26 199q25 95 78 169q53 75 130 119q78 45 184 45q92 0 163 -43q74 -45 113 -114v514h142v-1395h-142v127q-41 -63 -113 -104q-73 -41 -163 -41q-105 0 -184 44q-77 43 -130 116q-52 72 -78 167q-26 96 -26 197zM236 506q0 -83 18 -155q18 -71 53 -128 q34 -54 85 -87q50 -32 116 -32t116 32q51 33 85 87q35 57 53 128q18 72 18 155q0 82 -18 156q-17 71 -53 130q-32 53 -85 90q-47 33 -116 33t-116 -33q-53 -37 -85 -90q-36 -59 -53 -130q-18 -74 -18 -156z" />
<glyph unicode="e" horiz-adv-x="1005" d="M74 506q0 105 28 199q28 95 84 169t138 119q83 45 188 45q106 0 188 -45t138 -119t84 -169q28 -94 28 -199v-27h-731q4 -77 27 -146q23 -70 60 -119q38 -50 90 -80t116 -30q92 0 162 59t104 154h148q-21 -73 -58 -133q-38 -62 -89 -106q-54 -46 -120 -71t-147 -25 q-105 0 -188 44q-82 43 -138 116q-55 72 -84 167q-28 93 -28 197zM227 602h568q-11 62 -37 123q-23 55 -61 99q-37 43 -83 67t-102 24t-102 -24q-45 -23 -84 -67q-38 -42 -63 -99t-36 -123z" />
<glyph unicode="f" horiz-adv-x="538" d="M23 893v125h161v221q0 87 46 139q48 54 145 54q29 0 67 -15q9 -4 22.5 -9t22 -8.5t15.5 -6.5v-133q-13 13 -39 20q-29 8 -43 8q-43 0 -67 -30q-23 -29 -23 -64v-176h162v-125h-162v-893h-146v893h-161z" />
<glyph unicode="g" horiz-adv-x="1021" d="M61 506q0 101 26 199q25 95 78 169q53 75 130 119q78 45 184 45q89 0 162 -38t119 -109v127h145v-1018q0 -99 -35 -177q-34 -77 -93 -129q-58 -52 -132 -79q-73 -27 -149 -27q-71 0 -134 18q-66 19 -115 54q-54 38 -91 93q-41 60 -58 134h158q30 -98 89 -136t149 -38 q50 0 99 20q47 19 85 54q36 33 59 84t23 109v147q-43 -63 -118 -105q-71 -40 -163 -40q-105 0 -184 44q-77 43 -130 116q-52 72 -78 167q-26 96 -26 197zM207 506q0 -83 18 -155q17 -69 54 -128q34 -54 85 -87q50 -32 115 -32t117 32q51 32 87 87t54 128q19 76 19 155 q0 78 -19 156q-18 73 -54 130q-34 54 -87 90q-49 33 -117 33t-115 -33q-53 -37 -85 -90q-37 -62 -54 -130q-18 -74 -18 -156z" />
<glyph unicode="h" horiz-adv-x="1009" d="M119 0v1395h145v-506h4q61 80 147 113q84 32 177 32q142 0 224 -66q83 -66 83 -190v-778l-145 4v748q0 45 -19 77q-19 31 -47 49q-25 16 -66 24q-35 7 -75 7q-47 0 -96 -21q-47 -20 -92 -57q-40 -33 -68 -78q-27 -43 -27 -87v-666h-145z" />
<glyph unicode="i" horiz-adv-x="376" d="M119 0v1018h145v-1018h-145zM119 1188v168h145v-168h-145z" />
<glyph unicode="j" horiz-adv-x="387" d="M-43 -272q2 -1 12.5 -5t16.5 -6q17 -6 32 -6q48 0 78 38q31 39 31 91v1178h143v-1182q0 -125 -65 -186q-67 -62 -164 -62q-23 0 -44 4q-22 4 -40 17v119zM129 1188v168h143v-168h-143z" />
<glyph unicode="k" d="M119 0v1356h145v-826h2l445 488h166l-369 -422l381 -596h-172l-305 487l-148 -170v-317h-145z" />
<glyph unicode="l" horiz-adv-x="368" d="M119 0v1356h145v-1356h-145z" />
<glyph unicode="m" horiz-adv-x="1540" d="M119 0v1018h145v-129h4q24 35 59 62q40 31 72 46q41 19 81 29t83 10q152 0 242 -147q50 71 140 109t173 38q136 0 215 -70q80 -71 80 -186v-780h-145v745q0 45 -17 77t-42 51q-27 21 -55 29q-30 9 -56 9q-40 0 -87 -18q-43 -17 -85 -49q-39 -30 -64 -69q-24 -37 -24 -77 v-698h-146v745q0 46 -16 77t-41 51t-54 29q-30 9 -57 9q-40 0 -87 -18q-43 -17 -85 -49q-37 -29 -63 -69q-25 -39 -25 -77v-698h-145z" />
<glyph unicode="n" horiz-adv-x="1007" d="M119 0v1018h145v-129h4q22 35 61 64t78 46q46 20 87 28q45 9 88 9q140 0 219 -72q80 -72 80 -190v-774h-146v737q0 38 -16 70q-16 31 -41 55q-23 22 -55 36q-29 13 -58 13q-47 0 -94 -17q-50 -18 -91 -46q-42 -29 -74 -68t-42 -84v-696h-145z" />
<glyph unicode="o" horiz-adv-x="1021" d="M74 506q0 105 28 199q28 95 84 169t138 119q83 45 188 45q106 0 188 -45t138 -119t84 -169q28 -94 28 -199q0 -104 -28 -197q-29 -95 -84 -167q-56 -73 -138 -116q-83 -44 -188 -44t-188 44q-82 43 -138 116q-55 72 -84 167q-28 93 -28 197zM219 506q0 -80 22 -155 q21 -72 59 -128q37 -55 92 -87t120 -32t120 32t92 87q38 56 59 128q22 75 22 155q0 79 -22 156q-20 71 -59 130q-35 54 -92 90q-52 33 -120 33t-120 -33q-57 -36 -92 -90q-39 -59 -59 -130q-22 -77 -22 -156z" />
<glyph unicode="p" horiz-adv-x="1024" d="M119 -377v1395h141v-127q40 62 114 104q73 41 163 41q105 0 184 -44q77 -43 130 -116q52 -72 78 -167q25 -93 25 -197q0 -105 -25 -199q-26 -97 -78 -170t-130 -118t-184 -45q-92 0 -163 43q-76 46 -114 114v-514h-141zM264 512q0 -78 19 -156q17 -71 53 -130 q32 -53 85 -90q49 -34 116 -34q66 0 115 34q53 37 85 90q37 62 54 130q18 74 18 156q0 83 -18 155q-17 69 -54 128q-34 54 -85 87q-49 31 -115 31q-67 0 -116 -31q-51 -33 -85 -87q-35 -57 -53 -128q-19 -76 -19 -155z" />
<glyph unicode="q" horiz-adv-x="1058" d="M98 512q0 101 26 197q26 95 78 167q53 73 130 116q79 44 184 44q90 0 163 -41q74 -42 114 -104v127h141v-1395h-141v514q-38 -68 -114 -114q-71 -43 -163 -43q-106 0 -184 45t-130 118t-78 170q-26 98 -26 199zM244 512q0 -82 18 -156q17 -71 53 -130q32 -53 85 -90 q49 -34 116 -34t116 34q53 37 85 90q36 59 53 130q18 74 18 156q0 83 -18 155q-18 71 -53 128q-34 54 -85 87q-49 31 -116 31t-116 -31q-51 -33 -85 -87q-35 -57 -53 -128q-18 -72 -18 -155z" />
<glyph unicode="r" horiz-adv-x="585" d="M119 0v1018h145v-127h4q39 70 96 107q58 38 142 38q42 0 76 -18v-146q-41 11 -43 11q-20 2 -31 2q-50 0 -98 -19q-45 -18 -77 -50t-50 -74q-19 -44 -19 -89v-653h-145z" />
<glyph unicode="s" horiz-adv-x="907" d="M74 311h143q0 -47 19 -88q17 -38 50 -64q30 -25 72 -40q40 -15 86 -15q32 0 80 10q43 9 80 28q36 19 62 51q24 30 24 75q0 34 -19 63t-53 54q-40 29 -75 46q-54 26 -90 40q-42 16 -126 52q-58 25 -112 64q-50 36 -80 83q-31 48 -31 112q0 73 29 123q27 48 76 79 q45 29 108 43q59 13 127 13q82 0 144 -17q66 -18 113 -52q48 -35 75 -87t27 -124l-146 2q0 42 -17 69q-20 32 -47 48q-30 18 -69 27t-80 9q-85 0 -140 -41q-54 -40 -54 -90q0 -38 20 -64q23 -29 54 -49q35 -22 74 -39l87 -38l121 -52q63 -26 113 -60q52 -35 83 -81 q32 -47 32 -116q0 -82 -32 -140q-30 -55 -85 -94q-50 -36 -124 -53q-68 -16 -149 -16q-79 0 -143 20q-69 21 -118 63q-51 43 -80 103q-29 59 -29 143z" />
<glyph unicode="t" horiz-adv-x="524" d="M27 893v125h147v280h145v-280h162v-125h-162v-674q0 -63 39 -89q40 -26 93 -26q14 0 22 1q13 2 31 12v-119q-33 -7 -60 -11q-37 -5 -69 -5q-43 0 -77 10q-38 11 -64 33q-28 24 -44 59q-16 36 -16 90v719h-147z" />
<glyph unicode="u" horiz-adv-x="1005" d="M111 248v770h145v-715q0 -55 17 -90t45 -60q24 -21 63 -35q35 -12 70 -12q40 0 85 14q41 13 82 38q39 24 72 57t51 70v733h146v-1018h-146v129h-6q-57 -73 -140 -111q-79 -36 -181 -36q-136 0 -219 65q-84 66 -84 201z" />
<glyph unicode="v" horiz-adv-x="931" d="M10 1018h164l293 -836l291 836h164l-373 -1018h-166z" />
<glyph unicode="w" horiz-adv-x="1337" d="M18 1018h148l217 -799l217 799h137l217 -799l217 799h148l-279 -1018h-163l-207 797l-209 -797h-164z" />
<glyph unicode="x" horiz-adv-x="913" d="M18 0l361 522l-342 496h178l242 -385l252 385h178l-352 -496l360 -522h-182l-256 399l-256 -399h-183z" />
<glyph unicode="y" horiz-adv-x="907" d="M18 1018h162l289 -809l281 809h141l-426 -1217q-43 -117 -105 -165t-118 -48q-29 0 -59 6q-28 6 -54 17v139q9 -6 44 -26q23 -13 50 -13q24 0 46 19q20 17 39 44q17 25 30 53q11 24 18 46l37 127z" />
<glyph unicode="z" horiz-adv-x="931" d="M57 127l590 764l-10 2h-543v125h744v-125l-596 -762l10 -4h602l2 -127h-797z" />
<glyph unicode="{" horiz-adv-x="563" d="M66 559v115h51q32 0 53 15q19 14 32 38q10 18 15 48q4 23 4 48v463q0 42 17 78q17 35 44 59q29 26 61 37q37 13 71 13h90v-117h-23q-50 0 -89 -28q-38 -27 -38 -71v-495q0 -65 -41 -100q-42 -36 -110 -46q66 -15 108 -47q43 -33 43 -98v-487q0 -49 38 -76t89 -27h23v-114 h-90q-39 0 -71 14q-34 15 -61 39t-44 59q-17 36 -17 78v453q0 29 -4 53q-5 31 -15 48q-13 23 -32 35q-20 13 -53 13h-51z" />
<glyph unicode="|" horiz-adv-x="415" d="M150 -233v1755h116v-1755h-116z" />
<glyph unicode="}" horiz-adv-x="563" d="M66 -119h22q52 0 89 27q38 27 38 76v487q0 65 43 98q42 32 109 47q-70 10 -112 46q-40 34 -40 100v495q0 44 -38 71q-39 28 -89 28h-22v117h90q33 0 70 -13q33 -12 62 -37q27 -24 44 -59q16 -33 16 -78v-463q0 -25 4 -48q5 -27 16 -48q14 -26 31 -38q21 -15 54 -15h51 v-115h-51q-34 0 -54 -13q-17 -11 -31 -35q-11 -20 -16 -48q-4 -24 -4 -53v-453q0 -45 -16 -78q-17 -35 -44 -59t-62 -39q-32 -14 -70 -14h-90v114z" />
<glyph unicode="~" horiz-adv-x="1191" d="M100 365q0 73 18 142q19 71 53 123q37 55 90 86q55 32 128 32q65 0 112 -21q44 -20 80 -51q30 -26 57 -68q26 -41 47 -67q27 -34 49 -52q24 -20 61 -20q27 0 55 18q27 17 51 51q22 30 37 75q14 41 14 98h117q0 -183 -79 -277t-204 -94q-60 0 -99 20t-69 52q-28 29 -52 67 q-28 43 -50 68q-29 32 -60 51q-34 21 -85 21q-46 0 -77 -25q-27 -22 -47 -63q-17 -36 -25 -82q-7 -42 -7 -84h-115z" />
<glyph unicode="&#xa9;" horiz-adv-x="1611" d="M61 725q-2 201 102 377t279 272q176 96 365 96q201 0 375 -101q177 -103 271 -274q96 -174 97 -370q2 -201 -99 -374q-101 -174 -274 -272q-172 -97 -370 -97q-203 0 -377 101q-178 103 -271 275q-97 178 -98 367zM186 725q-1 -168 82 -311q84 -144 232 -227t307 -83 q166 0 309 82q144 82 226 226q84 146 85 313q1 168 -84 313q-86 146 -233 227q-148 82 -303 83q-165 2 -310 -83q-147 -86 -228 -229q-82 -145 -83 -311zM418 723q0 275 188 373q91 47 211 47q259 0 336 -232l-119 -28q-61 149 -221 151q-130 2 -199 -94q-61 -83 -61 -219 q0 -300 248 -305q194 -4 243 190l121 -37q-27 -127 -125 -198q-99 -72 -231 -72q-186 0 -291 121q-100 113 -100 303z" />
<glyph unicode="&#xad;" horiz-adv-x="604" d="M82 444v142h438v-142h-438z" />
<glyph unicode="&#x2000;" horiz-adv-x="761" />
<glyph unicode="&#x2001;" horiz-adv-x="1522" />
<glyph unicode="&#x2002;" horiz-adv-x="761" />
<glyph unicode="&#x2003;" horiz-adv-x="1522" />
<glyph unicode="&#x2004;" horiz-adv-x="507" />
<glyph unicode="&#x2005;" horiz-adv-x="380" />
<glyph unicode="&#x2006;" horiz-adv-x="253" />
<glyph unicode="&#x2007;" horiz-adv-x="253" />
<glyph unicode="&#x2008;" horiz-adv-x="190" />
<glyph unicode="&#x2009;" horiz-adv-x="304" />
<glyph unicode="&#x200a;" horiz-adv-x="84" />
<glyph unicode="&#x2010;" horiz-adv-x="604" d="M82 444v142h438v-142h-438z" />
<glyph unicode="&#x2011;" horiz-adv-x="604" d="M82 444v142h438v-142h-438z" />
<glyph unicode="&#x2012;" horiz-adv-x="604" d="M82 444v142h438v-142h-438z" />
<glyph unicode="&#x2013;" horiz-adv-x="1222" d="M55 453v141h1123v-141h-1123z" />
<glyph unicode="&#x2014;" horiz-adv-x="2084" d="M31 453v141h2019v-141h-2019z" />
<glyph unicode="&#x2018;" horiz-adv-x="448" d="M127 997v162q0 136 31 193q38 71 131 118l45 -69q-105 -34 -111 -197h94v-207h-190z" />
<glyph unicode="&#x2019;" horiz-adv-x="448" d="M106 1057q103 39 109 196h-92v207h190v-162q0 -124 -28 -184q-39 -82 -135 -127z" />
<glyph unicode="&#x201a;" horiz-adv-x="507" d="M160 0v201h178v-238q0 -93 -47 -157q-46 -62 -131 -80v88q52 18 70 54t18 95v37h-88z" />
<glyph unicode="&#x201c;" horiz-adv-x="671" d="M82 997v162q0 136 31 193q40 71 131 118l45 -69q-103 -35 -109 -197h92v-207h-190zM387 997v162q0 120 29 184q34 76 133 127l45 -69q-103 -35 -109 -197h93v-207h-191z" />
<glyph unicode="&#x201d;" horiz-adv-x="671" d="M72 1057q102 39 106 196h-94v207h192v-162q0 -124 -28 -184q-39 -82 -135 -127zM375 1057q110 40 110 196h-94v207h191v-162q0 -120 -29 -184q-38 -81 -133 -127z" />
<glyph unicode="&#x201e;" horiz-adv-x="671" d="M72 -197q101 39 106 197h-94v207h192v-162q0 -124 -28 -184q-39 -82 -135 -127zM375 -197q110 40 110 197h-94v207h191v-162q0 -120 -29 -184q-38 -81 -133 -127z" />
<glyph unicode="&#x2022;" horiz-adv-x="706" d="M106 709q0 104 74 176q72 71 178 71t177 -71q72 -72 73 -176q2 -105 -72 -177q-74 -73 -178 -73q-108 0 -179 71q-73 73 -73 179z" />
<glyph unicode="&#x202f;" horiz-adv-x="304" />
<glyph unicode="&#x205f;" horiz-adv-x="380" />
<glyph unicode="&#xe000;" horiz-adv-x="1013" d="M0 0v1014h1014v-1014h-1014z" />
</font>
</defs>
</svg>
